<?xml version="1.0" standalone="no"?>
<svg
  width="600"
  height="600"
  viewBox="0 0 600 600"
  xmlns="http://www.w3.org/2000/svg"
>
  <g transform="translate(300,300)">
    <path d="M144.8,-200.5C190.1,-196.2,231.1,-160.2,237.9,-116.9C244.7,-73.7,217.4,-23.2,203.8,25C190.2,73.2,190.3,119.1,170.7,155.5C151,191.9,111.6,218.8,75.1,207.2C38.7,195.7,5.3,145.8,-38.6,132.5C-82.5,119.2,-136.9,142.4,-176.2,132.8C-215.6,123.1,-239.9,80.6,-223.8,45.7C-207.7,10.9,-151.2,-16.1,-119.5,-41.8C-87.9,-67.5,-81.3,-91.8,-65.5,-109.6C-49.7,-127.4,-24.9,-138.7,12.4,-158C49.7,-177.4,99.5,-204.8,144.8,-200.5Z" fill="#492768" />
  </g>
</svg>
  